<svg id="Ebene_1" data-name="Ebene 1" xmlns="http://www.w3.org/2000/svg" xmlns:xlink="http://www.w3.org/1999/xlink" viewBox="0 0 601 777.98"><defs><style>.cls-1{fill:#ddd;}.cls-2{fill:#09f;}.cls-3{fill:#fff;}.cls-4,.cls-7{fill:none;}.cls-4{stroke:#fff;stroke-linecap:round;stroke-linejoin:round;stroke-width:12px;}.cls-5{fill:#0083cc;}.cls-6{fill:url(#Unbenannter_Verlauf_11);}.cls-8{fill:#fc0;}.cls-9{fill:#693;}.cls-10{fill:#09c;}.cls-11{fill:#c00;}.cls-12{fill:#f90;}</style><linearGradient id="Unbenannter_Verlauf_11" x1="600.1" y1="418.43" x2="418.75" y2="599.78" gradientUnits="userSpaceOnUse"><stop offset="0" stop-color="#f5f5f5"/><stop offset="0.5" stop-color="#fff"/><stop offset="1" stop-color="#f5f5f5"/></linearGradient></defs><title>Vektor-Smartobjekt1</title><polygon class="cls-1" points="600.62 340.39 553.75 387.27 553.75 340.39 600.62 340.39"/><polygon class="cls-1" points="341 554 341 600 365.95 575.05 341 554"/><path class="cls-2" d="M607.16,60.49c0-25.82-21.09-47.31-47.14-47.31H63.36a47.47,47.47,0,0,0-47.2,47.31V556.85c0,25.82,21.15,46.33,47.2,46.33H560c26.05,0,47.14-20.51,47.14-46.33Z" transform="translate(-16.16 -13.18)"/><path class="cls-3" d="M160.22,274.48Z" transform="translate(-16.16 -13.18)"/><polyline class="cls-4" points="369.68 244.73 280.67 355.99 221.32 304.07"/><circle class="cls-4" cx="295.5" cy="304.07" r="148.35"/><line class="cls-4" x1="375.12" y1="111.21" x2="466.1" y2="190.83"/><line class="cls-4" x1="215.88" y1="111.21" x2="124.9" y2="190.83"/><path class="cls-4" d="M195.47,466l26.9-26.9Z" transform="translate(-16.16 -13.18)"/><path class="cls-4" d="M428.57,466l-26.9-26.9Z" transform="translate(-16.16 -13.18)"/><polygon class="cls-5" points="490.05 590 591 488.8 591 340.06 341.21 590 490.05 590"/><polygon class="cls-6" points="496.01 600 601 494.75 601 340.06 341.22 600 496.01 600"/><path class="cls-7" d="M490.74,498.54v0Z" transform="translate(-16.16 -13.18)"/><path class="cls-8" d="M539.68,544.29c-1.28-3.44-2.71-7.17-4.34-11.4l-4.67-2.3-.39-.2-.31-.15-1.38-.68L527,530.94l2.12,3.86.55,1c5.17,9.37,9.34,16.69,12.4,21.77,2,3.29,3.51,5.65,4.46,6.89-.3-1.36-1-3.62-1.95-6.49C543.42,554.46,541.77,549.86,539.68,544.29Z" transform="translate(-16.16 -13.18)"/><path class="cls-8" d="M506.77,483.16a5.74,5.74,0,0,0-.43,2.39c0,4.14,2.64,11.6,7.68,21.58l.34.67.1.19c2.74,1.73,5.64,3.63,8.86,5.82l.35.24.37.26c1,.64,1.82,1.24,2.6,1.78l1.55-1.81c-1.24-3.28-2.39-6.19-3.51-8.9-.19-.47-.39-.93-.59-1.4-3.23-7.65-6.19-13.42-8.79-17.16-2.3-3.34-4.46-5.18-6.09-5.18h0a2.3,2.3,0,0,0-1.08.27h0l0,0A2.42,2.42,0,0,0,506.77,483.16Z" transform="translate(-16.16 -13.18)"/><path class="cls-9" d="M490.71,498.68c-1.54,0-2.5.46-3,1.41h0l0,0a2.27,2.27,0,0,0-.38,1.27c0,1.66,1.73,4,4.93,6.6A85.76,85.76,0,0,0,504,515.68c1.21.68,2.52,1.39,3.9,2.13,3.24-.16,6.71-.27,10.59-.32h.88l3.42,0h.78l1.94,0,.24-.28h0l-2.13-1.47-.39-.26-.34-.23c-3-2-5.62-3.78-8.13-5.38l-1.23-.78,0,0-1.82-1.13c-6.81-4.19-16-9.18-20.92-9.18v-.14h0Z" transform="translate(-16.16 -13.18)"/><path class="cls-9" d="M562.39,542.31c-2.83-2.13-6.86-5-12-8.52-3.37-2.32-7.11-4.87-11.14-7.57l-5.14.79-.46.07-.32,0-1,.15-.77.11-.71.11-.35.31-.88.77.73.36.32.16.38.19,4.18,2.05.53.26.49.24c10.1,5,23.34,11.3,29.07,13.41l1.17.4-.37-.33C565.34,544.57,564.06,543.56,562.39,542.31Z" transform="translate(-16.16 -13.18)"/><path class="cls-10" d="M572.18,518.77c-.79-.11-1.89-.2-3.29-.27-2.75-.14-6.65-.21-11.58-.21h-.25c-4.4,0-9.67.06-15.67.16-1.6,1.43-3.3,2.91-5.18,4.53l-.2.18-.41.34-2,1.71-.46.39-.16.14-.1.08h.1l.78-.12,4.59-.71.49-.08.63-.09c3.82-.6,7.4-1.18,10.65-1.72C558.31,521.74,568.5,519.93,572.18,518.77Z" transform="translate(-16.16 -13.18)"/><path class="cls-10" d="M524.33,518.81h-1.86l-2.67,0h-.88c-3.52,0-6.71.13-9.75.26l-1.17.06h-.35a123,123,0,0,0-15.82,1.66c-4.25.8-7.36,1.89-9,3.14a3.07,3.07,0,0,0-1.43,2.37,1.84,1.84,0,0,0,0,.33h0v0a2.4,2.4,0,0,0,.83,1.72,6.33,6.33,0,0,0,2.43,1.27,30.11,30.11,0,0,0,8.72,1,153.74,153.74,0,0,0,22.36-2.13l5.16-5.87.47-.53.18-.21.24-.28.37-.42S523.83,519.4,524.33,518.81Z" transform="translate(-16.16 -13.18)"/><path class="cls-11" d="M510.74,543.27c3-2.54,6.26-5.38,10-8.67l.33-.28.53-.47,3.85-3.37.29-.26.3-.27,1.53-1.34.62-.56.12-.1.84-.74.22-.2.26-.23.6-.51.37-.33.24-.2.78-.66.22-.19.14-.12.29-.24.35-.3.27-.23,1.63-1.39.18-.16.43-.36c1.65-1.42,3.24-2.81,4.73-4.14l.15-.13.73-.65c7-6.24,12.11-11.51,15.3-15.66,2.62-3.38,4-6.13,4-8a2.44,2.44,0,0,0-.78-1.92h0l0,0a2.45,2.45,0,0,0-1.93-.79h0c-1.83,0-4.58,1.38-7.94,4a96.47,96.47,0,0,0-10.14,9.35c-.74.76-1.5,1.57-2.33,2.46l-1,1.11c-2,2.12-4,4.4-6.21,7l-.3.36-.27.31-1.51,1.77-.5.58-.17.2-.08.1-.58.68-.15.18-2,2.33-.63.71-.05.05-.46.53-.41.46,0,0,0,.06-.28.32-.26.29-1,1.09-.53.6-3.07,3.51-.28.31-.51.59c-7.36,8.42-13,15.08-16.83,19.8-2.38,2.94-4.05,5.15-4.88,6.46l.63-.41c1-.69,2.33-1.69,4-3C502.26,550.4,506.06,547.25,510.74,543.27Z" transform="translate(-16.16 -13.18)"/><path class="cls-12" d="M529.84,484.3a72,72,0,0,0-3.49,13.77c-.31,1.75-.6,3.65-.88,5.65,1.19,2.83,2.42,5.91,3.74,9.38,2.32-2.68,4.44-5,6.47-7.22,1.74-8.14,2.62-14.58,2.62-19.14a17,17,0,0,0-.78-5.81c-.54-1.38-1.27-2.08-2.31-2.23h0a2.05,2.05,0,0,0-.54-.07,3.34,3.34,0,0,0-2.46,1.42A15.42,15.42,0,0,0,529.84,484.3Z" transform="translate(-16.16 -13.18)"/><path class="cls-12" d="M524.92,549.43c1-4,2.17-8.45,3.37-13.34L526,531.86c-1.19,1-2.53,2.23-4,3.49-1.21,11.29-2.64,25.94-2.64,31.92,0,.42,0,.79,0,1.12,0-.08.07-.17.1-.26.41-1,.92-2.53,1.52-4.5C522,560.24,523.35,555.47,524.92,549.43Z" transform="translate(-16.16 -13.18)"/><path d="M153.63,783.9a35.11,35.11,0,0,1-11.7,5.41,54.24,54.24,0,0,1-14.13,1.85q-9.69,0-16.39-3.06a28.08,28.08,0,0,1-10.9-8.64A35.78,35.78,0,0,1,94.46,766a76.22,76.22,0,0,1-1.86-17.44q0-20.49,9.21-31.56t26.8-11.06a57.25,57.25,0,0,1,14.28,1.45,48.19,48.19,0,0,1,9.77,3.72l-5,17.11a42.35,42.35,0,0,0-7.35-2.74,32.14,32.14,0,0,0-8.31-1q-8.73,0-13.24,5.73t-4.52,18.32a37.62,37.62,0,0,0,1.13,9.53,23.29,23.29,0,0,0,3.39,7.59,15.78,15.78,0,0,0,5.89,5.08,18.37,18.37,0,0,0,8.48,1.86,26.08,26.08,0,0,0,9-1.38,31.71,31.71,0,0,0,6.62-3.3Z" transform="translate(-16.16 -13.18)"/><path d="M210.94,727.88a27.17,27.17,0,0,0-9-1.78,14.79,14.79,0,0,0-9.44,3,14.39,14.39,0,0,0-5.09,7.67V788.9h-21V708.18h16.31l2.42,10.66h.65a22.09,22.09,0,0,1,7.42-9.21,18.87,18.87,0,0,1,11-3.22,30.64,30.64,0,0,1,9.53,1.77Z" transform="translate(-16.16 -13.18)"/><path d="M219.18,748.54q0-20.49,10-31.56t28.09-11.06A42,42,0,0,1,274.07,709a31.26,31.26,0,0,1,11.78,8.64,37,37,0,0,1,7,13.48,61.6,61.6,0,0,1,2.34,17.43q0,20.51-9.93,31.56t-28,11.06a42.19,42.19,0,0,1-16.79-3.06,32.12,32.12,0,0,1-11.87-8.64,36.33,36.33,0,0,1-7.1-13.48A61.31,61.31,0,0,1,219.18,748.54Zm21.63,0a46.73,46.73,0,0,0,1,9.85,27.36,27.36,0,0,0,2.9,7.91,14.11,14.11,0,0,0,5.09,5.25,14.5,14.5,0,0,0,7.51,1.85q8.24,0,12.27-6t4-18.89q0-11.13-3.71-18t-12.59-6.86a14.3,14.3,0,0,0-12.11,5.81Q240.81,735.31,240.81,748.54Z" transform="translate(-16.16 -13.18)"/><path d="M359.15,788.9V743.05q0-9.84-2.83-14.2t-9.6-4.36A15.07,15.07,0,0,0,336.63,728a19.26,19.26,0,0,0-5.9,8.64v52.3h-21V708.18h16.63l2.43,10.66h.64a34.73,34.73,0,0,1,9.85-9q6.13-3.88,15.82-3.88a32.57,32.57,0,0,1,10.66,1.62,18.16,18.16,0,0,1,7.91,5.32A24.32,24.32,0,0,1,378.52,723a65.65,65.65,0,0,1,1.61,15.74V788.9Z" transform="translate(-16.16 -13.18)"/><path d="M459.56,675.89h21v73a55,55,0,0,1-2.9,18.88,35.37,35.37,0,0,1-8.08,13.08A31.13,31.13,0,0,1,457,788.42a52.49,52.49,0,0,1-16.3,2.42q-43,0-42.95-39.23V675.89h22.12v71.36a44.55,44.55,0,0,0,1.21,11.22,17.36,17.36,0,0,0,3.79,7.43,14.34,14.34,0,0,0,6.46,4,30.3,30.3,0,0,0,9,1.21q10.17,0,14.69-5.65t4.52-18.24Z" transform="translate(-16.16 -13.18)"/><path d="M501.7,675.89h22.12v113H501.7Z" transform="translate(-16.16 -13.18)"/></svg>