<svg id="Ebene_1" data-name="Ebene 1" xmlns="http://www.w3.org/2000/svg" xmlns:xlink="http://www.w3.org/1999/xlink" viewBox="0 0 632.94 626.36"><defs><style>.cls-1{fill:#ddd;}.cls-2{fill:#09f;}.cls-3{fill:#fff;}.cls-4,.cls-7{fill:none;}.cls-4{stroke:#fff;stroke-linecap:round;stroke-linejoin:round;stroke-width:12px;}.cls-5{fill:#0083cc;}.cls-6{fill:url(#Unbenannter_Verlauf_11);}.cls-8{fill:#fc0;}.cls-9{fill:#693;}.cls-10{fill:#09c;}.cls-11{fill:#c00;}.cls-12{fill:#f90;}</style><linearGradient id="Unbenannter_Verlauf_11" x1="616.26" y1="431.61" x2="434.91" y2="612.96" gradientUnits="userSpaceOnUse"><stop offset="0" stop-color="#f5f5f5"/><stop offset="0.5" stop-color="#fff"/><stop offset="1" stop-color="#f5f5f5"/></linearGradient></defs><title>Zeichenfläche 1</title><polygon class="cls-1" points="616.78 353.57 569.9 400.45 569.9 353.57 616.78 353.57"/><polygon class="cls-1" points="357.16 567.18 357.16 613.18 382.11 588.23 357.16 567.18"/><path class="cls-2" d="M607.16,60.49c0-25.82-21.09-47.31-47.14-47.31H63.36a47.47,47.47,0,0,0-47.2,47.31V556.85c0,25.82,21.15,46.33,47.2,46.33H560c26.05,0,47.14-20.51,47.14-46.33Z"/><path class="cls-3" d="M160.22,274.48Z"/><polyline class="cls-4" points="385.83 257.91 296.82 369.18 237.48 317.25"/><circle class="cls-4" cx="311.66" cy="317.25" r="148.35"/><line class="cls-4" x1="391.28" y1="124.39" x2="482.26" y2="204.01"/><line class="cls-4" x1="232.04" y1="124.39" x2="141.05" y2="204.01"/><path class="cls-4" d="M195.47,466l26.9-26.9Z"/><path class="cls-4" d="M428.57,466l-26.9-26.9Z"/><polygon class="cls-5" points="506.2 603.18 607.16 501.98 607.16 353.24 357.37 603.18 506.2 603.18"/><polygon class="cls-6" points="512.16 613.18 617.16 507.93 617.16 353.24 357.38 613.18 512.16 613.18"/><path class="cls-7" d="M490.74,498.54v0Z"/><path class="cls-8" d="M539.68,544.29c-1.28-3.44-2.71-7.17-4.34-11.4l-4.67-2.3-.39-.2-.31-.15-1.38-.68L527,530.94l2.12,3.86.55,1c5.17,9.37,9.34,16.69,12.4,21.77,2,3.29,3.51,5.65,4.46,6.89-.3-1.36-1-3.62-1.95-6.49C543.42,554.46,541.77,549.86,539.68,544.29Z"/><path class="cls-8" d="M506.77,483.16a5.74,5.74,0,0,0-.43,2.39c0,4.14,2.64,11.6,7.68,21.58l.34.67.1.19c2.74,1.73,5.64,3.63,8.86,5.82l.35.24.37.26c1,.64,1.82,1.24,2.6,1.78l1.55-1.81c-1.24-3.28-2.39-6.19-3.51-8.9-.19-.47-.39-.93-.59-1.4-3.23-7.65-6.19-13.42-8.79-17.16-2.3-3.34-4.46-5.18-6.09-5.18h0a2.3,2.3,0,0,0-1.08.27h0l0,0A2.42,2.42,0,0,0,506.77,483.16Z"/><path class="cls-9" d="M490.71,498.68c-1.54,0-2.5.46-3,1.41h0l0,0a2.27,2.27,0,0,0-.38,1.27c0,1.66,1.73,4,4.93,6.6A85.76,85.76,0,0,0,504,515.68c1.21.68,2.52,1.39,3.9,2.13,3.24-.16,6.71-.27,10.59-.32h.88l3.42,0h.78l1.94,0,.24-.28h0l-2.13-1.47-.39-.26-.34-.23c-3-2-5.62-3.78-8.13-5.38l-1.23-.78,0,0-1.82-1.13c-6.81-4.19-16-9.18-20.92-9.18v-.14h0Z"/><path class="cls-9" d="M562.39,542.31c-2.83-2.13-6.86-5-12-8.52-3.37-2.32-7.11-4.87-11.14-7.57l-5.14.79-.46.07-.32,0-1,.15-.77.11-.71.11-.35.31-.88.77.73.36.32.16.38.19,4.18,2.05.53.26.49.24c10.1,5,23.34,11.3,29.07,13.41l1.17.4-.37-.33C565.34,544.57,564.06,543.56,562.39,542.31Z"/><path class="cls-10" d="M572.18,518.77c-.79-.11-1.89-.2-3.29-.27-2.75-.14-6.65-.21-11.58-.21h-.25c-4.4,0-9.67.06-15.67.16-1.6,1.43-3.3,2.91-5.18,4.53l-.2.18-.41.34-2,1.71-.46.39-.16.14-.1.08h.1l.78-.12,4.59-.71.49-.08.63-.09c3.82-.6,7.4-1.18,10.65-1.72C558.31,521.74,568.5,519.93,572.18,518.77Z"/><path class="cls-10" d="M524.33,518.81h-1.86l-2.67,0h-.88c-3.52,0-6.71.13-9.75.26l-1.17.06h-.35a123,123,0,0,0-15.82,1.66c-4.25.8-7.36,1.89-9,3.14a3.07,3.07,0,0,0-1.43,2.37,1.84,1.84,0,0,0,0,.33h0v0a2.4,2.4,0,0,0,.83,1.72,6.33,6.33,0,0,0,2.43,1.27,30.11,30.11,0,0,0,8.72,1,153.74,153.74,0,0,0,22.36-2.13l5.16-5.87.47-.53.18-.21.24-.28.37-.42S523.83,519.4,524.33,518.81Z"/><path class="cls-11" d="M510.74,543.27c3-2.54,6.26-5.38,10-8.67l.33-.28.53-.47,3.85-3.37.29-.26.3-.27,1.53-1.34.62-.56.12-.1.84-.74.22-.2.26-.23.6-.51.37-.33.24-.2.78-.66.22-.19.14-.12.29-.24.35-.3.27-.23,1.63-1.39.18-.16.43-.36c1.65-1.42,3.24-2.81,4.73-4.14l.15-.13.73-.65c7-6.24,12.11-11.51,15.3-15.66,2.62-3.38,4-6.13,4-8a2.44,2.44,0,0,0-.78-1.92h0l0,0a2.45,2.45,0,0,0-1.93-.79h0c-1.83,0-4.58,1.38-7.94,4a96.47,96.47,0,0,0-10.14,9.35c-.74.76-1.5,1.57-2.33,2.46l-1,1.11c-2,2.12-4,4.4-6.21,7l-.3.36-.27.31-1.51,1.77-.5.58-.17.2-.08.1-.58.68-.15.18-2,2.33-.63.71-.05.05-.46.53-.41.46,0,0,0,.06-.28.32-.26.29-1,1.09-.53.6-3.07,3.51-.28.31-.51.59c-7.36,8.42-13,15.08-16.83,19.8-2.38,2.94-4.05,5.15-4.88,6.46l.63-.41c1-.69,2.33-1.69,4-3C502.26,550.4,506.06,547.25,510.74,543.27Z"/><path class="cls-12" d="M529.84,484.3a72,72,0,0,0-3.49,13.77c-.31,1.75-.6,3.65-.88,5.65,1.19,2.83,2.42,5.91,3.74,9.38,2.32-2.68,4.44-5,6.47-7.22,1.74-8.14,2.62-14.58,2.62-19.14a17,17,0,0,0-.78-5.81c-.54-1.38-1.27-2.08-2.31-2.23h0a2.05,2.05,0,0,0-.54-.07,3.34,3.34,0,0,0-2.46,1.42A15.42,15.42,0,0,0,529.84,484.3Z"/><path class="cls-12" d="M524.92,549.43c1-4,2.17-8.45,3.37-13.34L526,531.86c-1.19,1-2.53,2.23-4,3.49-1.21,11.29-2.64,25.94-2.64,31.92,0,.42,0,.79,0,1.12,0-.08.07-.17.1-.26.41-1,.92-2.53,1.52-4.5C522,560.24,523.35,555.47,524.92,549.43Z"/></svg>